<?xml version="1.0" standalone="no"?>
<svg xmlns="http://www.w3.org/2000/svg" xmlns:xlink="http://www.w3.org/1999/xlink" width="338pt" height="149pt" viewBox="0.00 0.00 338.26 149.34">
<g id="graph0" class="graph" transform="translate(4,145.33999633789062) scale(1)" data-name="">
<polygon fill="white" stroke="none" points="-4,4 -4,-145.34 334.26,-145.34 334.26,4 -4,4" style=""/>
<!-- p_139843874160432 -->
<g id="node1" class="node" pointer-events="visible" data-name="p_139843874160432">

<ellipse fill="none" stroke="black" cx="34.63" cy="-123.34" rx="34.76" ry="18" style=""/>
<text text-anchor="middle" x="34.63" y="-119.14" font-family="Times,serif" font-size="14.00" style="">c4::a1</text>
</g>
<!-- p_139843874160952 -->
<g id="node2" class="node" pointer-events="visible" data-name="p_139843874160952">

<ellipse fill="none" stroke="black" cx="121.63" cy="-123.34" rx="34.76" ry="18" style=""/>
<text text-anchor="middle" x="121.63" y="-119.14" font-family="Times,serif" font-size="14.00" style="">c4::a2</text>
</g>
<!-- p_139843874161472 -->
<g id="node3" class="node" pointer-events="visible" data-name="p_139843874161472">

<ellipse fill="none" stroke="black" cx="295.63" cy="-123.34" rx="34.76" ry="18" style=""/>
<text text-anchor="middle" x="295.63" y="-119.14" font-family="Times,serif" font-size="14.00" style="">c4::a3</text>
</g>
<!-- p_139843874161992 -->
<g id="node4" class="node" pointer-events="visible" data-name="p_139843874161992">

<ellipse fill="none" stroke="black" cx="208.63" cy="-123.34" rx="34.76" ry="18" style=""/>
<text text-anchor="middle" x="208.63" y="-119.14" font-family="Times,serif" font-size="14.00" style="">c4::a4</text>
</g>
<!-- p139843863914960 -->
<g id="node5" class="node" pointer-events="visible" data-name="p139843863914960">

<polygon fill="none" stroke="black" points="144.63,-69.34 90.63,-69.34 90.63,-33.34 144.63,-33.34 144.63,-69.34" style=""/>
<text text-anchor="middle" x="117.63" y="-47.14" font-family="Times,serif" font-size="14.00" style="">m1</text>
</g>
<!-- p139843863914960&#45;&gt;p_139843874160432 -->
<g id="edge1" class="edge" data-name="p139843863914960-&gt;p_139843874160432">

<path fill="none" stroke="black" d="M97.12,-69.64C86.17,-78.87 72.59,-90.32 60.89,-100.19" style=""/>
<polygon fill="black" stroke="black" points="58.93,-97.27 53.54,-106.39 63.44,-102.62 58.93,-97.27" style=""/>
</g>
<!-- p139843863914960&#45;&gt;p_139843874160952 -->
<g id="edge3" class="edge" data-name="p139843863914960-&gt;p_139843874160952">

<path fill="none" stroke="black" d="M118.62,-69.64C119.04,-76.93 119.53,-85.61 120,-93.8" style=""/>
<polygon fill="black" stroke="black" points="116.5,-93.94 120.57,-103.72 123.49,-93.54 116.5,-93.94" style=""/>
</g>
<!-- p139843863916304 -->
<g id="node6" class="node" pointer-events="visible" data-name="p139843863916304">

<polygon fill="none" stroke="black" points="65.63,-69.34 11.63,-69.34 11.63,-33.34 65.63,-33.34 65.63,-69.34" style=""/>
<text text-anchor="middle" x="38.63" y="-47.14" font-family="Times,serif" font-size="14.00" style="">m2</text>
</g>
<!-- p139843863916304&#45;&gt;p_139843874160432 -->
<g id="edge2" class="edge" data-name="p139843863916304-&gt;p_139843874160432">

<path fill="none" stroke="black" d="M37.64,-69.64C37.23,-76.93 36.73,-85.61 36.26,-93.8" style=""/>
<polygon fill="black" stroke="black" points="32.77,-93.54 35.7,-103.72 39.76,-93.94 32.77,-93.54" style=""/>
</g>
<!-- p139843863917648 -->
<g id="node7" class="node" pointer-events="visible" data-name="p139843863917648">

<polygon fill="none" stroke="black" points="307.63,-69.34 253.63,-69.34 253.63,-33.34 307.63,-33.34 307.63,-69.34" style=""/>
<text text-anchor="middle" x="280.63" y="-47.14" font-family="Times,serif" font-size="14.00" style="">m3</text>
</g>
<!-- p139843863916304&#45;&gt;p139843863917648 -->
<g id="edge6" class="edge" data-name="p139843863916304-&gt;p139843863917648">

<path fill="none" stroke="black" d="M58.83,-33.08C67.88,-26.09 79.1,-18.94 90.63,-15.34 152.14,3.88 174.82,5.99 235.63,-15.34 242.45,-17.73 249,-21.63 254.89,-26.01" style=""/>
<polygon fill="black" stroke="black" points="252.43,-28.52 262.38,-32.16 256.87,-23.11 252.43,-28.52" style=""/>
</g>
<!-- p139843863917648&#45;&gt;p_139843874161472 -->
<g id="edge4" class="edge" data-name="p139843863917648-&gt;p_139843874161472">

<path fill="none" stroke="black" d="M284.34,-69.64C285.92,-77.02 287.81,-85.81 289.58,-94.09" style=""/>
<polygon fill="black" stroke="black" points="286.13,-94.71 291.65,-103.75 292.98,-93.24 286.13,-94.71" style=""/>
</g>
<!-- p139843863918992 -->
<g id="node8" class="node" pointer-events="visible" data-name="p139843863918992">

<polygon fill="none" stroke="black" points="235.63,-69.34 181.63,-69.34 181.63,-33.34 235.63,-33.34 235.63,-69.34" style=""/>
<text text-anchor="middle" x="208.63" y="-47.14" font-family="Times,serif" font-size="14.00" style="">m4</text>
</g>
<!-- p139843863918992&#45;&gt;p_139843874161992 -->
<g id="edge5" class="edge" data-name="p139843863918992-&gt;p_139843874161992">

<path fill="none" stroke="black" d="M208.63,-69.64C208.63,-76.93 208.63,-85.61 208.63,-93.8" style=""/>
<polygon fill="black" stroke="black" points="205.13,-93.72 208.63,-103.72 212.13,-93.72 205.13,-93.72" style=""/>
</g>
<!-- p139843863918992&#45;&gt;p139843863917648 -->
<g id="edge7" class="edge" data-name="p139843863918992-&gt;p139843863917648">

<path fill="none" stroke="black" d="M235.91,-51.34C237.91,-51.34 239.92,-51.34 241.92,-51.34" style=""/>
<polygon fill="black" stroke="black" points="241.87,-54.84 251.87,-51.34 241.87,-47.84 241.87,-54.84" style=""/>
</g>
</g>
</svg>